<svg width="200" height="200" viewBox="0 0 200 200" fill="none" xmlns="http://www.w3.org/2000/svg">
<g clip-path="url(#clip0_11_3)">
<path d="M125.733 8.20874H74.2662C72.5464 8.20874 71.1684 9.63861 71.131 11.4159C70.0911 61.3747 44.8039 108.791 1.27927 142.377C-0.102562 143.443 -0.417375 145.446 0.592874 146.889L30.7055 189.926C31.73 191.39 33.726 191.721 35.131 190.645C62.3458 169.782 84.2358 144.614 99.9999 116.718C115.764 144.614 137.655 169.782 164.87 190.645C166.274 191.721 168.27 191.39 169.295 189.926L199.408 146.889C200.417 145.446 200.102 143.443 198.722 142.377C155.196 108.791 129.909 61.3747 128.87 11.4159C128.833 9.63861 127.453 8.20874 125.733 8.20874Z" fill="#FF875B" style="fill:#FF875B;fill:color(display-p3 1.0000 0.5294 0.3569);fill-opacity:1;"/>
</g>
<defs>
<clipPath id="clip0_11_3">
<rect width="200" height="200" fill="white" style="fill:white;fill-opacity:1;"/>
</clipPath>
</defs>
</svg>
